<svg width="26" height="26" viewBox="0 0 26 26" fill="none" xmlns="http://www.w3.org/2000/svg">
<path d="M24.4842 10.7745L19.0787 10.0197L21.1338 4.91925C21.4616 4.10584 20.5638 3.34619 19.8272 3.81303L15.206 6.74064L13.5308 1.50135C13.3976 1.0834 13.0379 0.874664 12.6782 0.874664C12.3185 0.874664 11.9588 1.0834 11.8256 1.50135L10.1504 6.74112L5.52924 3.81352C4.79262 3.34668 3.89532 4.10633 4.22259 4.91974L6.27765 10.0202L0.872197 10.7745C0.010273 10.8947 -0.193168 12.0586 0.57588 12.4692L5.39951 15.0434L1.73953 19.1271C1.20291 19.7259 1.655 20.6391 2.3926 20.6391C2.45698 20.6391 2.52381 20.6322 2.59261 20.6171L7.92779 19.461L7.72582 24.9628C7.70469 25.5323 8.1617 25.9023 8.6305 25.9023C8.88357 25.9023 9.14107 25.7943 9.32829 25.5513L12.6787 21.2056L16.0291 25.5513C16.2163 25.7943 16.4733 25.9023 16.7269 25.9023C17.1957 25.9023 17.6527 25.5323 17.6316 24.9628L17.4296 19.461L22.7648 20.6171C23.6179 20.8009 24.2002 19.7763 23.6174 19.1266L19.9574 15.0429L24.781 12.4688C25.5496 12.0586 25.3461 10.8947 24.4842 10.7745ZM16.7328 16.1105L14.1829 15.5582L14.2797 18.1876L12.6782 16.1105L11.0767 18.1876L11.173 15.5582L8.62313 16.1105L10.3725 14.1586L8.06685 12.9283L10.6502 12.5675L9.66785 10.1297L11.8767 11.5287L12.6782 9.02445L13.4787 11.5287L15.6876 10.1297L14.7052 12.5675L17.2886 12.9283L14.9829 14.1586L16.7328 16.1105Z" fill="#1877F2"/>
</svg>
